<svg width="24" height="25" viewBox="0 0 24 25" fill="none" xmlns="http://www.w3.org/2000/svg">
<path d="M19.3259 5.95582C20 6.96471 20 8.36918 20 11.1781C20 13.987 20 15.3915 19.3259 16.4004C19.034 16.8371 18.659 17.2121 18.2223 17.504C17.3409 18.0929 16.1577 18.1673 14 18.1767V18.1781L12.8944 20.3892C12.5259 21.1263 11.4741 21.1263 11.1056 20.3892L10 18.1781V18.1767C7.8423 18.1673 6.65907 18.0929 5.77772 17.504C5.34096 17.2121 4.96596 16.8371 4.67412 16.4004C4 15.3915 4 13.987 4 11.1781C4 8.36918 4 6.96471 4.67412 5.95582C4.96596 5.51906 5.34096 5.14406 5.77772 4.85222C6.78661 4.1781 8.19108 4.1781 11 4.1781H13C15.8089 4.1781 17.2134 4.1781 18.2223 4.85222C18.659 5.14406 19.034 5.51906 19.3259 5.95582Z" stroke="white" stroke-width="2" stroke-linecap="round" stroke-linejoin="round"/>
<path d="M9 9.1781L15 9.1781" stroke="white" stroke-width="2" stroke-linecap="round" stroke-linejoin="round"/>
<path d="M9 13.1781H12" stroke="white" stroke-width="2" stroke-linecap="round" stroke-linejoin="round"/>
</svg>
