<svg width="26" height="26" viewBox="0 0 26 26" fill="none" xmlns="http://www.w3.org/2000/svg">
<ellipse cx="13.0001" cy="9.74996" rx="4.33333" ry="4.33333" fill="#D1E0FF"/>
<ellipse cx="18.4167" cy="9.75" rx="3.25" ry="3.25" fill="#D1E0FF"/>
<ellipse cx="7.58325" cy="9.75" rx="3.25" ry="3.25" fill="#D1E0FF"/>
<path fill-rule="evenodd" clip-rule="evenodd" d="M19.0325 19.5H21.6451C22.2367 19.5 22.6902 18.99 22.5515 18.4149C22.1702 16.8338 21.1186 14.0834 18.4167 14.0834C17.4568 14.0834 16.7052 14.4305 16.1179 14.9491C17.7513 16.0088 18.5959 17.8644 19.0325 19.5Z" fill="#D1E0FF"/>
<path fill-rule="evenodd" clip-rule="evenodd" d="M9.8821 14.9491C9.29483 14.4305 8.54322 14.0834 7.58329 14.0834C4.88141 14.0834 3.82979 16.8338 3.44849 18.4149C3.30978 18.99 3.76331 19.5 4.35493 19.5H6.96747C7.40415 17.8644 8.2487 16.0088 9.8821 14.9491Z" fill="#D1E0FF"/>
<path d="M12.9999 15.1666C17.0776 15.1666 18.0856 18.8502 18.3348 20.6714C18.4096 21.2186 17.9689 21.6666 17.4166 21.6666H8.58325C8.03097 21.6666 7.59021 21.2186 7.66508 20.6714C7.91425 18.8502 8.92226 15.1666 12.9999 15.1666Z" fill="#D1E0FF"/>
</svg>
